<svg width="11" height="16" viewBox="0 0 11 16" fill="none" xmlns="http://www.w3.org/2000/svg">
<path d="M8.73047 9.96094H5.45898C5.49154 10.918 5.74544 11.6374 6.2207 12.1191C6.70247 12.6009 7.44792 12.8418 8.45703 12.8418C9.14062 12.8418 9.75911 12.7409 10.3125 12.5391L10.6641 14.9023C9.85677 15.0911 9.02344 15.1855 8.16406 15.1855C6.45182 15.1855 5.0944 14.7266 4.0918 13.8086C3.0957 12.8841 2.57161 11.6016 2.51953 9.96094H0.869141V8.47656H2.51953V7.26562H0.869141V5.78125H2.53906C2.64974 4.14062 3.2194 2.86784 4.24805 1.96289C5.2832 1.05143 6.65365 0.595703 8.35938 0.595703C9.04297 0.595703 9.8112 0.696615 10.6641 0.898438L10.3125 3.27148C9.70052 3.06315 9.09831 2.95898 8.50586 2.95898C6.66341 2.95898 5.6543 3.89974 5.47852 5.78125H8.73047V7.26562H5.45898V8.47656H8.73047V9.96094Z" fill="#31CED8"/>
</svg>
