<svg width="16" height="16" viewBox="0 0 16 16" fill="none" xmlns="http://www.w3.org/2000/svg">
<g clip-path="url(#clip0)">
<path fill-rule="evenodd" clip-rule="evenodd" d="M5.31689 10.7297L5.78944 7.13048L12.5744 0.294163C12.9611 -0.0954514 13.5895 -0.100525 13.9824 0.282797L15.7003 1.9587C16.0986 2.34719 16.1032 2.98599 15.7106 3.38017L8.91417 10.2043L5.31689 10.7297ZM2.00391 4.1459C2.00391 3.59362 2.45162 3.1459 3.00391 3.1459H7.66607C8.21836 3.1459 8.66607 2.69819 8.66607 2.1459C8.66607 1.59362 8.21836 1.1459 7.66607 1.1459H3.00391C1.34705 1.1459 0.00390625 2.48905 0.00390625 4.1459V12.9929C0.00390625 14.6497 1.34705 15.9929 3.0039 15.9929H11.8434C13.5003 15.9929 14.8434 14.6497 14.8434 12.9929V8.13626C14.8434 7.58398 14.3957 7.13626 13.8434 7.13626C13.2911 7.13626 12.8434 7.58398 12.8434 8.13626V12.9929C12.8434 13.5451 12.3957 13.9929 11.8434 13.9929H3.0039C2.45162 13.9929 2.00391 13.5451 2.00391 12.9929V4.1459Z" fill="#31CED8"/>
</g>
<defs>
<clipPath id="clip0">
<rect width="16" height="16" fill="white"/>
</clipPath>
</defs>
</svg>
