<svg width="100" height="91" viewBox="0 0 100 91" fill="none" xmlns="http://www.w3.org/2000/svg">
<path d="M30 1C28.3431 1 27 2.34314 27 4V87C27 88.6569 28.3431 90 30 90H96C97.6569 90 99 88.6569 99 87V18.8284C99 18.0328 98.6839 17.2697 98.1213 16.7071L83.2929 1.87868C82.7303 1.31607 81.9672 1 81.1716 1H30Z" stroke="#31CED8" stroke-width="2"/>
<path d="M82 1L82 14C82 16.2091 83.7909 18 86 18H99" stroke="#31CED8" stroke-width="2"/>
<rect y="33" width="52" height="26" rx="2" fill="#31CED8"/>
<path d="M16.8125 40.625H18.7812V48.6016C18.7812 49.6901 18.4401 50.5547 17.7578 51.1953C17.0807 51.8359 16.1849 52.1562 15.0703 52.1562C13.8828 52.1562 12.9661 51.8568 12.3203 51.2578C11.6745 50.6589 11.3516 49.8255 11.3516 48.7578H13.3203C13.3203 49.362 13.4688 49.8177 13.7656 50.125C14.0677 50.4271 14.5026 50.5781 15.0703 50.5781C15.6016 50.5781 16.0234 50.4036 16.3359 50.0547C16.6536 49.7005 16.8125 49.2135 16.8125 48.5938V40.625ZM23.0234 47.7734V52H21.0469V40.625H25.3984C26.6693 40.625 27.6771 40.9557 28.4219 41.6172C29.1719 42.2786 29.5469 43.1536 29.5469 44.2422C29.5469 45.3568 29.1797 46.224 28.4453 46.8438C27.7161 47.4635 26.6927 47.7734 25.375 47.7734H23.0234ZM23.0234 46.1875H25.3984C26.1016 46.1875 26.638 46.0234 27.0078 45.6953C27.3776 45.362 27.5625 44.8828 27.5625 44.2578C27.5625 43.6432 27.375 43.1536 27 42.7891C26.625 42.4193 26.1094 42.2292 25.4531 42.2188H23.0234V46.1875ZM40 50.5234C39.5885 51.0599 39.0182 51.4661 38.2891 51.7422C37.5599 52.0182 36.7318 52.1562 35.8047 52.1562C34.8516 52.1562 34.0078 51.9401 33.2734 51.5078C32.5391 51.0755 31.9714 50.4583 31.5703 49.6562C31.1745 48.849 30.9688 47.9089 30.9531 46.8359V45.9453C30.9531 44.2266 31.3646 42.8854 32.1875 41.9219C33.0104 40.9531 34.1589 40.4688 35.6328 40.4688C36.8984 40.4688 37.9036 40.7812 38.6484 41.4062C39.3932 42.0312 39.8411 42.9323 39.9922 44.1094H38.0547C37.8359 42.7396 37.0417 42.0547 35.6719 42.0547C34.7865 42.0547 34.112 42.375 33.6484 43.0156C33.1901 43.651 32.9531 44.5859 32.9375 45.8203V46.6953C32.9375 47.9245 33.1953 48.8802 33.7109 49.5625C34.2318 50.2396 34.9531 50.5781 35.875 50.5781C36.8854 50.5781 37.6042 50.349 38.0312 49.8906V47.6641H35.6875V46.1641H40V50.5234Z" fill="white"/>
</svg>
